<?xml version="1.0" ?><!DOCTYPE svg  PUBLIC '-//W3C//DTD SVG 1.1//EN'  'http://www.w3.org/Graphics/SVG/1.1/DTD/svg11.dtd'><svg enable-background="new 0 0 64 64" id="Layer_1" version="1.1" viewBox="0 0 64 64" xml:space="preserve" xmlns="http://www.w3.org/2000/svg" xmlns:xlink="http://www.w3.org/1999/xlink"><g><rect fill="#EBF0F3" height="64" width="64"/><rect fill="#D5D6DB" height="8" width="64" y="56"/></g><g><path d="M44,38.4c-1.5,0-2.9,0.6-3.9,1.7l-10.9-5.9c0.2-0.7,0.3-1.4,0.3-2.2c0-0.8-0.1-1.5-0.3-2.2L40,23.9   c1,1,2.4,1.7,3.9,1.7c3.1,0,5.5-2.5,5.5-5.5c0-3.1-2.5-5.5-5.5-5.5S38.4,17,38.4,20c0,0.4,0,0.8,0.1,1.2l-10.9,5.9   c-1.4-1.6-3.4-2.6-5.7-2.6c-4.1,0-7.5,3.4-7.5,7.5c0,4.1,3.4,7.5,7.5,7.5c2.3,0,4.3-1,5.7-2.6l10.9,5.9c-0.1,0.4-0.1,0.8-0.1,1.2   c0,3.1,2.5,5.5,5.5,5.5s5.5-2.5,5.5-5.5C49.5,40.9,47,38.4,44,38.4z" fill="#2F4859"/></g></svg>